<svg width="894" height="224" viewBox="0 0 894 224" fill="none" xmlns="http://www.w3.org/2000/svg">
<g clip-path="url(#clip0_42_24)">
<rect width="894" height="224" rx="24" fill="white"/>
<g filter="url(#filter0_gf_42_24)">
<ellipse cx="447.5" cy="-94" rx="547.5" ry="270" fill="#FFE4E4"/>
</g>
<path d="M805.558 151.495C811.962 251.649 793.126 259.355 768.141 223.029L761.009 268.708L800.589 285.836L816.246 249.963C817.413 271.471 809.462 319.852 768.321 341.312C764.656 340.593 757.147 337.425 751.741 330.206C751.741 330.206 735.135 332.718 724.69 331.585C712.741 330.289 696.784 323.216 696.784 323.216C700.084 340.11 706.855 379.502 707.536 401.917C722.882 403.489 756.175 407.795 766.579 412.448C771.286 409.305 783.316 400.227 793.771 389.066L775.504 453.45C758.416 458.951 719.031 473.185 698.202 486.107L638.169 451.289C632.077 441.817 618.624 421.687 613.556 416.946L640.727 400.154C640.589 403.885 637.95 414.582 628.495 427.517C638.568 425.487 662.586 422.458 678.075 426.58C667.252 407.841 639.728 367.102 616.216 354.062C613.188 362.834 601.307 384.105 578.006 399.007C578.892 423.109 577.415 475.631 564.424 492.9C573.358 505.641 592.457 535.69 597.38 553.958C613.286 557.406 654.784 561.321 693.528 549.398C660.993 584.076 589.793 681.007 404.568 721.214C395.767 718.872 376.191 714.134 368.29 713.915C367.887 708.784 365.432 695.066 358.834 681.251C368.882 673.876 390.799 656.784 398.077 647.416C379.793 640.195 336.588 619.558 310.043 594.783L302.794 637.603L278.475 667.403C289.62 677.434 314 704.649 322.362 733.253C333.131 736.433 357.68 745.479 369.725 756.221C343.292 746.046 279.688 731.318 235.248 745.87C231 736.575 213.831 711.625 179.135 686.187L191.983 624.13C198.718 623.253 215.29 619.31 227.7 610.553L238.647 629.953L233.869 647.995C230.283 647.826 221.162 643.765 213.359 628.876L195.506 682.065C208.028 687.909 236.913 698.454 252.279 693.876C254.273 673.994 257.23 630.283 253.104 614.488C245.094 607.802 228.237 592.419 224.891 584.369C202.346 591.244 165.742 606.783 119.07 565.157C112.667 567.065 98.5882 579.491 93.4928 613.935C88.3974 648.379 172.11 872.111 214.603 979.671L790.532 822.045L1117.33 525.107L1014.27 239.071L883.217 -57.9039C883.123 -58.1465 883.02 -58.3813 882.906 -58.6083L883.217 -57.9039C892.775 -33.1735 800.484 72.1492 805.558 151.495Z" fill="#CE2124"/>
<path opacity="0.4" d="M790.211 821.477L1117.01 524.538L1013.95 238.503L923.408 -13.2961C929.024 11.1583 800.22 72.4693 805.237 150.927C811.641 251.081 792.805 258.787 767.821 222.462L760.688 268.139L800.268 285.268L815.926 249.395C817.093 270.903 809.141 319.284 768 340.744C764.336 340.025 756.825 336.857 751.42 329.638C751.325 329.652 734.785 332.146 724.37 331.017C712.421 329.721 696.463 322.648 696.463 322.648C699.763 339.542 706.534 378.934 707.216 401.349C722.562 402.921 755.855 407.228 766.258 411.881C770.966 408.737 782.996 399.659 793.451 388.499L775.184 452.883C758.095 458.384 718.71 472.617 697.881 485.539L637.849 450.721C631.756 441.249 618.303 421.119 613.235 416.379L640.407 399.585C640.269 403.317 637.629 414.014 628.174 426.949C638.247 424.919 662.266 421.89 677.754 426.012C666.932 407.273 639.408 366.534 615.895 353.494C612.868 362.266 600.987 383.537 577.685 398.439C578.571 422.541 577.095 475.063 564.104 492.332C573.038 505.073 592.137 535.122 597.06 553.39C612.966 556.838 654.464 560.753 693.207 548.83C660.672 583.509 589.472 680.44 404.248 720.647C395.447 718.305 375.87 713.566 367.969 713.347C367.566 708.215 365.111 694.498 358.513 680.683C368.561 673.308 390.478 656.216 397.757 646.848C379.472 639.627 336.267 618.99 309.722 594.214L302.473 637.035L278.154 666.835C289.299 676.867 313.68 704.081 322.042 732.685C332.811 735.865 357.359 744.911 369.404 755.653C342.971 745.478 279.367 730.749 234.927 745.302C230.679 736.006 213.51 711.056 178.814 685.618L191.662 623.562C198.397 622.685 214.969 618.741 227.379 609.985L238.325 629.385L233.548 647.427C229.963 647.258 220.841 643.197 213.038 628.308L195.185 681.497C207.707 687.341 236.592 697.886 251.958 693.308C253.952 673.426 256.91 629.714 252.784 613.919C244.774 607.234 227.916 591.851 224.571 583.801C202.025 590.676 165.42 606.215 118.748 564.589C112.346 566.497 98.2677 578.923 93.1725 613.367C88.0771 647.811 171.789 871.543 214.283 979.103L790.211 821.477Z" fill="white"/>
<path d="M36.464 148.76V125.4H40.368V128.76H41.264L40.368 129.688C40.368 128.259 40.7947 127.139 41.648 126.328C42.5013 125.496 43.6533 125.08 45.104 125.08C46.8747 125.08 48.2933 125.688 49.36 126.904C50.4267 128.12 50.96 129.752 50.96 131.8V136.568C50.96 137.933 50.7147 139.128 50.224 140.152C49.7547 141.155 49.0827 141.933 48.208 142.488C47.3333 143.043 46.2987 143.32 45.104 143.32C43.6533 143.32 42.5013 142.915 41.648 142.104C40.7947 141.272 40.368 140.141 40.368 138.712L41.264 139.64H40.336L40.464 143.832V148.76H36.464ZM43.696 139.864C44.72 139.864 45.52 139.565 46.096 138.968C46.672 138.371 46.96 137.517 46.96 136.408V131.992C46.96 130.883 46.672 130.029 46.096 129.432C45.52 128.835 44.72 128.536 43.696 128.536C42.6933 128.536 41.904 128.845 41.328 129.464C40.752 130.061 40.464 130.904 40.464 131.992V136.408C40.464 137.496 40.752 138.349 41.328 138.968C41.904 139.565 42.6933 139.864 43.696 139.864ZM61.8595 143.32C60.3662 143.32 59.0648 143.032 57.9555 142.456C56.8462 141.88 55.9822 141.08 55.3635 140.056C54.7662 139.011 54.4675 137.795 54.4675 136.408V131.992C54.4675 130.605 54.7662 129.4 55.3635 128.376C55.9822 127.331 56.8462 126.52 57.9555 125.944C59.0648 125.368 60.3662 125.08 61.8595 125.08C63.3315 125.08 64.6115 125.368 65.6995 125.944C66.8088 126.52 67.6622 127.331 68.2595 128.376C68.8782 129.4 69.1875 130.605 69.1875 131.992V135.16H58.3395V136.408C58.3395 137.645 58.6382 138.584 59.2355 139.224C59.8328 139.843 60.7182 140.152 61.8915 140.152C62.7875 140.152 63.5128 140.003 64.0675 139.704C64.6222 139.384 64.9742 138.925 65.1235 138.328H69.0595C68.7608 139.843 67.9502 141.059 66.6275 141.976C65.3262 142.872 63.7368 143.32 61.8595 143.32ZM65.3155 132.92V131.96C65.3155 130.744 65.0275 129.816 64.4515 129.176C63.8755 128.515 63.0115 128.184 61.8595 128.184C60.7075 128.184 59.8328 128.515 59.2355 129.176C58.6382 129.837 58.3395 130.776 58.3395 131.992V132.664L65.6035 132.6L65.3155 132.92ZM72.919 143V125.4H76.823V128.76H77.911L76.823 129.688C76.823 128.237 77.239 127.107 78.071 126.296C78.9243 125.485 80.087 125.08 81.559 125.08C83.287 125.08 84.663 125.656 85.687 126.808C86.7323 127.96 87.255 129.507 87.255 131.448V143H83.255V131.864C83.255 130.797 82.9777 129.976 82.423 129.4C81.8683 128.824 81.0897 128.536 80.087 128.536C79.1057 128.536 78.327 128.835 77.751 129.432C77.1963 130.029 76.919 130.883 76.919 131.992V143H72.919ZM93.5465 148.76V145.432H98.7625C99.6585 145.432 100.33 145.208 100.778 144.76C101.226 144.333 101.45 143.715 101.45 142.904V141.592L101.514 138.296H100.65L101.514 137.432C101.514 138.861 101.088 139.981 100.234 140.792C99.4025 141.581 98.2718 141.976 96.8425 141.976C95.0505 141.976 93.6212 141.368 92.5545 140.152C91.5092 138.936 90.9865 137.293 90.9865 135.224V131.8C90.9865 129.752 91.5092 128.12 92.5545 126.904C93.6212 125.688 95.0505 125.08 96.8425 125.08C98.2718 125.08 99.4025 125.485 100.234 126.296C101.088 127.085 101.514 128.195 101.514 129.624L100.65 128.76H101.514L101.418 125.4H105.418V143C105.418 144.771 104.832 146.168 103.658 147.192C102.485 148.237 100.874 148.76 98.8265 148.76H93.5465ZM98.1865 138.52C99.2105 138.52 99.9998 138.221 100.554 137.624C101.13 137.005 101.418 136.152 101.418 135.064V131.992C101.418 130.904 101.13 130.061 100.554 129.464C99.9998 128.845 99.2105 128.536 98.1865 128.536C97.1625 128.536 96.3732 128.835 95.8185 129.432C95.2638 130.029 94.9865 130.883 94.9865 131.992V135.064C94.9865 136.173 95.2638 137.027 95.8185 137.624C96.3732 138.221 97.1625 138.52 98.1865 138.52ZM116.51 143.288C115.017 143.288 113.715 143.011 112.606 142.456C111.518 141.88 110.665 141.08 110.046 140.056C109.449 139.011 109.15 137.784 109.15 136.376V132.024C109.15 130.616 109.449 129.4 110.046 128.376C110.665 127.331 111.518 126.531 112.606 125.976C113.715 125.4 115.017 125.112 116.51 125.112C118.025 125.112 119.326 125.4 120.414 125.976C121.502 126.531 122.345 127.331 122.942 128.376C123.561 129.4 123.87 130.605 123.87 131.992V136.376C123.87 137.784 123.561 139.011 122.942 140.056C122.345 141.08 121.502 141.88 120.414 142.456C119.326 143.011 118.025 143.288 116.51 143.288ZM116.51 139.8C117.577 139.8 118.398 139.512 118.974 138.936C119.571 138.339 119.87 137.485 119.87 136.376V132.024C119.87 130.893 119.571 130.04 118.974 129.464C118.398 128.888 117.577 128.6 116.51 128.6C115.465 128.6 114.643 128.888 114.046 129.464C113.449 130.04 113.15 130.893 113.15 132.024V136.376C113.15 137.485 113.449 138.339 114.046 138.936C114.643 139.512 115.465 139.8 116.51 139.8ZM137.425 143C136.273 143 135.26 142.765 134.385 142.296C133.532 141.827 132.86 141.165 132.369 140.312C131.879 139.437 131.633 138.435 131.633 137.304V123.256H126.001V119.64H135.633V137.304C135.633 137.944 135.815 138.456 136.177 138.84C136.561 139.203 137.073 139.384 137.713 139.384H143.025V143H137.425ZM151.013 143.32C149.2 143.32 147.77 142.84 146.725 141.88C145.68 140.92 145.157 139.629 145.157 138.008C145.157 136.28 145.733 134.947 146.885 134.008C148.037 133.069 149.669 132.6 151.781 132.6H156.165V131.096C156.165 130.243 155.888 129.581 155.333 129.112C154.778 128.621 154.021 128.376 153.061 128.376C152.186 128.376 151.461 128.568 150.885 128.952C150.309 129.336 149.968 129.859 149.861 130.52H145.957C146.149 128.856 146.896 127.533 148.197 126.552C149.498 125.571 151.162 125.08 153.189 125.08C155.344 125.08 157.04 125.624 158.277 126.712C159.536 127.779 160.165 129.229 160.165 131.064V143H156.293V139.928H155.653L156.293 139.064C156.293 140.365 155.813 141.4 154.853 142.168C153.893 142.936 152.613 143.32 151.013 143.32ZM152.325 140.312C153.456 140.312 154.373 140.024 155.077 139.448C155.802 138.872 156.165 138.125 156.165 137.208V135.064H151.845C151.034 135.064 150.384 135.299 149.893 135.768C149.402 136.237 149.157 136.856 149.157 137.624C149.157 138.456 149.434 139.117 149.989 139.608C150.565 140.077 151.344 140.312 152.325 140.312ZM164.056 143V119.64H168.056V125.4L167.96 128.76H169.048L167.96 129.688C167.96 128.237 168.376 127.107 169.208 126.296C170.062 125.485 171.224 125.08 172.696 125.08C174.424 125.08 175.8 125.656 176.824 126.808C177.87 127.96 178.392 129.507 178.392 131.448V143H174.392V131.864C174.392 130.797 174.115 129.976 173.56 129.4C173.006 128.824 172.227 128.536 171.224 128.536C170.243 128.536 169.464 128.835 168.888 129.432C168.334 130.029 168.056 130.883 168.056 131.992V143H164.056ZM187.468 143.32C185.655 143.32 184.225 142.84 183.18 141.88C182.135 140.92 181.612 139.629 181.612 138.008C181.612 136.28 182.188 134.947 183.34 134.008C184.492 133.069 186.124 132.6 188.236 132.6H192.62V131.096C192.62 130.243 192.343 129.581 191.788 129.112C191.233 128.621 190.476 128.376 189.516 128.376C188.641 128.376 187.916 128.568 187.34 128.952C186.764 129.336 186.423 129.859 186.316 130.52H182.412C182.604 128.856 183.351 127.533 184.652 126.552C185.953 125.571 187.617 125.08 189.644 125.08C191.799 125.08 193.495 125.624 194.732 126.712C195.991 127.779 196.62 129.229 196.62 131.064V143H192.748V139.928H192.108L192.748 139.064C192.748 140.365 192.268 141.4 191.308 142.168C190.348 142.936 189.068 143.32 187.468 143.32ZM188.78 140.312C189.911 140.312 190.828 140.024 191.532 139.448C192.257 138.872 192.62 138.125 192.62 137.208V135.064H188.3C187.489 135.064 186.839 135.299 186.348 135.768C185.857 136.237 185.612 136.856 185.612 137.624C185.612 138.456 185.889 139.117 186.444 139.608C187.02 140.077 187.799 140.312 188.78 140.312ZM200.512 143V125.4H204.416V128.76H205.504L204.416 129.688C204.416 128.237 204.832 127.107 205.664 126.296C206.517 125.485 207.68 125.08 209.152 125.08C210.88 125.08 212.256 125.656 213.28 126.808C214.325 127.96 214.848 129.507 214.848 131.448V143H210.848V131.864C210.848 130.797 210.57 129.976 210.016 129.4C209.461 128.824 208.682 128.536 207.68 128.536C206.698 128.536 205.92 128.835 205.344 129.432C204.789 130.029 204.512 130.883 204.512 131.992V143H200.512ZM220.755 134.296V130.584H230.995V134.296H220.755ZM244.199 143.32C242.705 143.32 241.393 143.043 240.263 142.488C239.153 141.912 238.289 141.112 237.671 140.088C237.052 139.043 236.743 137.816 236.743 136.408V131.992C236.743 130.563 237.052 129.336 237.671 128.312C238.289 127.288 239.153 126.499 240.263 125.944C241.393 125.368 242.705 125.08 244.199 125.08C246.417 125.08 248.188 125.656 249.511 126.808C250.833 127.939 251.527 129.485 251.591 131.448H247.591C247.527 130.531 247.196 129.827 246.599 129.336C246.023 128.824 245.223 128.568 244.199 128.568C243.132 128.568 242.289 128.867 241.671 129.464C241.052 130.04 240.743 130.872 240.743 131.96V136.408C240.743 137.496 241.052 138.339 241.671 138.936C242.289 139.533 243.132 139.832 244.199 139.832C245.223 139.832 246.023 139.587 246.599 139.096C247.196 138.584 247.527 137.869 247.591 136.952H251.591C251.527 138.915 250.833 140.472 249.511 141.624C248.188 142.755 246.417 143.32 244.199 143.32ZM255.162 143V139.352H261.306V129.016H255.962V125.4H265.146V139.352H270.586V143H255.162ZM262.906 122.456C262.095 122.456 261.455 122.253 260.986 121.848C260.517 121.421 260.282 120.856 260.282 120.152C260.282 119.448 260.517 118.893 260.986 118.488C261.455 118.061 262.095 117.848 262.906 117.848C263.717 117.848 264.357 118.061 264.826 118.488C265.295 118.893 265.53 119.448 265.53 120.152C265.53 120.856 265.295 121.421 264.826 121.848C264.357 122.253 263.717 122.456 262.906 122.456ZM282.478 143C280.792 143 279.47 142.531 278.51 141.592C277.571 140.653 277.102 139.363 277.102 137.72V129.016H272.334V125.4H277.102V120.44H281.134V125.4H287.886V129.016H281.134V137.72C281.134 138.829 281.678 139.384 282.766 139.384H287.566V143H282.478ZM292.193 143V125.4H295.969V128.76H296.961L295.777 130.808C295.777 128.909 296.204 127.48 297.057 126.52C297.91 125.56 299.169 125.08 300.833 125.08C302.732 125.08 304.225 125.667 305.313 126.84C306.401 128.013 306.945 129.635 306.945 131.704V132.984H302.753V131.992C302.753 130.861 302.454 129.987 301.857 129.368C301.281 128.749 300.481 128.44 299.457 128.44C298.412 128.44 297.601 128.749 297.025 129.368C296.47 129.987 296.193 130.861 296.193 131.992V143H292.193ZM315.061 143.32C313.247 143.32 311.818 142.84 310.773 141.88C309.727 140.92 309.205 139.629 309.205 138.008C309.205 136.28 309.781 134.947 310.933 134.008C312.085 133.069 313.717 132.6 315.829 132.6H320.213V131.096C320.213 130.243 319.935 129.581 319.381 129.112C318.826 128.621 318.069 128.376 317.109 128.376C316.234 128.376 315.509 128.568 314.933 128.952C314.357 129.336 314.015 129.859 313.909 130.52H310.005C310.197 128.856 310.943 127.533 312.245 126.552C313.546 125.571 315.21 125.08 317.237 125.08C319.391 125.08 321.087 125.624 322.325 126.712C323.583 127.779 324.213 129.229 324.213 131.064V143H320.341V139.928H319.701L320.341 139.064C320.341 140.365 319.861 141.4 318.901 142.168C317.941 142.936 316.661 143.32 315.061 143.32ZM316.373 140.312C317.503 140.312 318.421 140.024 319.125 139.448C319.85 138.872 320.213 138.125 320.213 137.208V135.064H315.893C315.082 135.064 314.431 135.299 313.941 135.768C313.45 136.237 313.205 136.856 313.205 137.624C313.205 138.456 313.482 139.117 314.037 139.608C314.613 140.077 315.391 140.312 316.373 140.312ZM330.12 134.296V130.584H340.36V134.296H330.12ZM351.963 143.32C350.214 143.32 348.795 142.712 347.707 141.496C346.641 140.28 346.107 138.648 346.107 136.6V131.832C346.107 129.763 346.641 128.12 347.707 126.904C348.774 125.688 350.193 125.08 351.963 125.08C353.414 125.08 354.566 125.496 355.419 126.328C356.273 127.139 356.699 128.259 356.699 129.688L355.803 128.76H356.731L356.603 124.568V119.64H360.603V143H356.699V139.64H355.803L356.699 138.712C356.699 140.141 356.273 141.272 355.419 142.104C354.566 142.915 353.414 143.32 351.963 143.32ZM353.371 139.864C354.395 139.864 355.185 139.565 355.739 138.968C356.315 138.349 356.603 137.496 356.603 136.408V131.992C356.603 130.904 356.315 130.061 355.739 129.464C355.185 128.845 354.395 128.536 353.371 128.536C352.347 128.536 351.547 128.835 350.971 129.432C350.395 130.029 350.107 130.883 350.107 131.992V136.408C350.107 137.517 350.395 138.371 350.971 138.968C351.547 139.565 352.347 139.864 353.371 139.864ZM364.527 143V139.352H370.671V129.016H365.327V125.4H374.511V139.352H379.951V143H364.527ZM372.271 122.456C371.46 122.456 370.82 122.253 370.351 121.848C369.882 121.421 369.647 120.856 369.647 120.152C369.647 119.448 369.882 118.893 370.351 118.488C370.82 118.061 371.46 117.848 372.271 117.848C373.082 117.848 373.722 118.061 374.191 118.488C374.66 118.893 374.895 119.448 374.895 120.152C374.895 120.856 374.66 121.421 374.191 121.848C373.722 122.253 373.082 122.456 372.271 122.456ZM385.187 148.76V145.432H390.403C391.299 145.432 391.971 145.208 392.419 144.76C392.867 144.333 393.091 143.715 393.091 142.904V141.592L393.155 138.296H392.291L393.155 137.432C393.155 138.861 392.728 139.981 391.875 140.792C391.043 141.581 389.912 141.976 388.483 141.976C386.691 141.976 385.261 141.368 384.195 140.152C383.149 138.936 382.627 137.293 382.627 135.224V131.8C382.627 129.752 383.149 128.12 384.195 126.904C385.261 125.688 386.691 125.08 388.483 125.08C389.912 125.08 391.043 125.485 391.875 126.296C392.728 127.085 393.155 128.195 393.155 129.624L392.291 128.76H393.155L393.059 125.4H397.059V143C397.059 144.771 396.472 146.168 395.299 147.192C394.125 148.237 392.515 148.76 390.467 148.76H385.187ZM389.827 138.52C390.851 138.52 391.64 138.221 392.195 137.624C392.771 137.005 393.059 136.152 393.059 135.064V131.992C393.059 130.904 392.771 130.061 392.195 129.464C391.64 128.845 390.851 128.536 389.827 128.536C388.803 128.536 388.013 128.835 387.459 129.432C386.904 130.029 386.627 130.883 386.627 131.992V135.064C386.627 136.173 386.904 137.027 387.459 137.624C388.013 138.221 388.803 138.52 389.827 138.52ZM400.982 143V139.352H407.126V129.016H401.782V125.4H410.966V139.352H416.406V143H400.982ZM408.726 122.456C407.915 122.456 407.275 122.253 406.806 121.848C406.337 121.421 406.102 120.856 406.102 120.152C406.102 119.448 406.337 118.893 406.806 118.488C407.275 118.061 407.915 117.848 408.726 117.848C409.537 117.848 410.177 118.061 410.646 118.488C411.115 118.893 411.35 119.448 411.35 120.152C411.35 120.856 411.115 121.421 410.646 121.848C410.177 122.253 409.537 122.456 408.726 122.456ZM428.297 143C426.612 143 425.289 142.531 424.329 141.592C423.391 140.653 422.921 139.363 422.921 137.72V129.016H418.153V125.4H422.921V120.44H426.953V125.4H433.705V129.016H426.953V137.72C426.953 138.829 427.497 139.384 428.585 139.384H433.385V143H428.297ZM442.653 143.32C440.84 143.32 439.41 142.84 438.365 141.88C437.32 140.92 436.797 139.629 436.797 138.008C436.797 136.28 437.373 134.947 438.525 134.008C439.677 133.069 441.309 132.6 443.421 132.6H447.805V131.096C447.805 130.243 447.528 129.581 446.973 129.112C446.418 128.621 445.661 128.376 444.701 128.376C443.826 128.376 443.101 128.568 442.525 128.952C441.949 129.336 441.608 129.859 441.501 130.52H437.597C437.789 128.856 438.536 127.533 439.837 126.552C441.138 125.571 442.802 125.08 444.829 125.08C446.984 125.08 448.68 125.624 449.917 126.712C451.176 127.779 451.805 129.229 451.805 131.064V143H447.933V139.928H447.293L447.933 139.064C447.933 140.365 447.453 141.4 446.493 142.168C445.533 142.936 444.253 143.32 442.653 143.32ZM443.965 140.312C445.096 140.312 446.013 140.024 446.717 139.448C447.442 138.872 447.805 138.125 447.805 137.208V135.064H443.485C442.674 135.064 442.024 135.299 441.533 135.768C441.042 136.237 440.797 136.856 440.797 137.624C440.797 138.456 441.074 139.117 441.629 139.608C442.205 140.077 442.984 140.312 443.965 140.312ZM465.521 143C464.369 143 463.355 142.765 462.481 142.296C461.627 141.827 460.955 141.165 460.465 140.312C459.974 139.437 459.729 138.435 459.729 137.304V123.256H454.097V119.64H463.729V137.304C463.729 137.944 463.91 138.456 464.273 138.84C464.657 139.203 465.169 139.384 465.809 139.384H471.121V143H465.521Z" fill="black"/>
<path d="M41.306 185.234C40.2833 185.234 39.382 185.069 38.602 184.74C37.8393 184.411 37.2327 183.96 36.782 183.388C36.3487 182.799 36.0973 182.105 36.028 181.308H38.836C38.9053 181.776 39.1567 182.157 39.59 182.452C40.0233 182.729 40.5953 182.868 41.306 182.868H42.424C43.2733 182.868 43.9147 182.695 44.348 182.348C44.7813 182.001 44.998 181.542 44.998 180.97C44.998 180.415 44.7987 179.982 44.4 179.67C44.0187 179.341 43.4467 179.124 42.684 179.02L40.838 178.734C39.3127 178.491 38.186 178.058 37.458 177.434C36.7473 176.793 36.392 175.848 36.392 174.6C36.392 173.283 36.8167 172.269 37.666 171.558C38.5327 170.83 39.8067 170.466 41.488 170.466H42.476C43.9667 170.466 45.154 170.813 46.038 171.506C46.9393 172.182 47.4507 173.092 47.572 174.236H44.764C44.6947 173.82 44.4607 173.482 44.062 173.222C43.6807 172.962 43.152 172.832 42.476 172.832H41.488C40.6733 172.832 40.0753 172.988 39.694 173.3C39.33 173.595 39.148 174.037 39.148 174.626C39.148 175.146 39.3127 175.536 39.642 175.796C39.9713 176.056 40.4827 176.238 41.176 176.342L43.074 176.654C44.686 176.879 45.8647 177.33 46.61 178.006C47.3727 178.665 47.754 179.627 47.754 180.892C47.754 182.261 47.3033 183.327 46.402 184.09C45.518 184.853 44.192 185.234 42.424 185.234H41.306ZM51.2538 185V166.02H54.0618V170.7L54.0358 173.43H54.7118L54.0358 174.08C54.0358 172.936 54.3738 172.043 55.0498 171.402C55.7258 170.761 56.6618 170.44 57.8578 170.44C59.2792 170.44 60.4145 170.899 61.2638 171.818C62.1132 172.719 62.5378 173.941 62.5378 175.484V185H59.7298V175.796C59.7298 174.86 59.4785 174.132 58.9758 173.612C58.4732 173.092 57.7885 172.832 56.9218 172.832C56.0378 172.832 55.3358 173.109 54.8158 173.664C54.3132 174.201 54.0618 174.973 54.0618 175.978V185H51.2538ZM71.9137 185.26C70.1977 185.26 68.8284 184.766 67.8057 183.778C66.783 182.773 66.2717 181.412 66.2717 179.696V170.7H69.0797V179.696C69.0797 180.684 69.331 181.455 69.8337 182.01C70.3364 182.547 71.0297 182.816 71.9137 182.816C72.815 182.816 73.517 182.547 74.0197 182.01C74.5397 181.455 74.7997 180.684 74.7997 179.696V170.7H77.6077V179.696C77.6077 181.412 77.0877 182.773 76.0477 183.778C75.025 184.766 73.647 185.26 71.9137 185.26ZM81.8615 185V170.7H84.5655V173.43H85.2415L84.3835 175.12C84.3835 173.577 84.7215 172.416 85.3975 171.636C86.0735 170.839 87.0789 170.44 88.4135 170.44C89.9389 170.44 91.1435 170.917 92.0275 171.87C92.9289 172.806 93.3795 174.097 93.3795 175.744V176.706H90.4935V175.978C90.4935 174.955 90.2335 174.175 89.7135 173.638C89.2109 173.083 88.5002 172.806 87.5815 172.806C86.6629 172.806 85.9435 173.083 85.4235 173.638C84.9209 174.193 84.6695 174.973 84.6695 175.978V185H81.8615ZM102.079 185.26C100.918 185.26 99.8954 185.035 99.0114 184.584C98.1447 184.116 97.4774 183.466 97.0094 182.634C96.5414 181.802 96.3074 180.831 96.3074 179.722V175.978C96.3074 174.851 96.5414 173.881 97.0094 173.066C97.4774 172.234 98.1447 171.593 99.0114 171.142C99.8954 170.674 100.918 170.44 102.079 170.44C103.258 170.44 104.281 170.674 105.147 171.142C106.014 171.593 106.681 172.234 107.149 173.066C107.617 173.881 107.851 174.851 107.851 175.978V178.526H99.0114V179.722C99.0114 180.779 99.2714 181.585 99.7914 182.14C100.329 182.695 101.1 182.972 102.105 182.972C102.92 182.972 103.579 182.833 104.081 182.556C104.584 182.261 104.896 181.837 105.017 181.282H107.799C107.591 182.495 106.967 183.466 105.927 184.194C104.887 184.905 103.605 185.26 102.079 185.26ZM105.147 176.836V175.952C105.147 174.912 104.887 174.106 104.367 173.534C103.847 172.962 103.085 172.676 102.079 172.676C101.091 172.676 100.329 172.962 99.7914 173.534C99.2714 174.106 99.0114 174.921 99.0114 175.978V176.628L105.355 176.602L105.147 176.836ZM118.709 185C117.409 185 116.395 184.645 115.667 183.934C114.939 183.223 114.575 182.235 114.575 180.97V173.248H110.623V170.7H114.575V166.67H117.383V170.7H122.973V173.248H117.383V180.97C117.383 181.958 117.86 182.452 118.813 182.452H122.713V185H118.709ZM132.219 185.234C131.04 185.234 130.018 185.009 129.151 184.558C128.284 184.107 127.617 183.466 127.149 182.634C126.681 181.802 126.447 180.823 126.447 179.696V176.004C126.447 174.86 126.681 173.881 127.149 173.066C127.617 172.234 128.284 171.593 129.151 171.142C130.018 170.691 131.04 170.466 132.219 170.466C133.398 170.466 134.42 170.691 135.287 171.142C136.154 171.593 136.821 172.234 137.289 173.066C137.757 173.881 137.991 174.86 137.991 176.004V179.696C137.991 180.823 137.757 181.802 137.289 182.634C136.821 183.466 136.154 184.107 135.287 184.558C134.42 185.009 133.398 185.234 132.219 185.234ZM132.219 182.764C133.172 182.764 133.909 182.504 134.429 181.984C134.949 181.447 135.209 180.684 135.209 179.696V176.004C135.209 174.999 134.949 174.236 134.429 173.716C133.909 173.196 133.172 172.936 132.219 172.936C131.283 172.936 130.546 173.196 130.009 173.716C129.489 174.236 129.229 174.999 129.229 176.004V179.696C129.229 180.684 129.489 181.447 130.009 181.984C130.546 182.504 131.283 182.764 132.219 182.764ZM141.751 185V166.02H144.559V176.446H147.081L150.877 170.7H154.049L149.499 177.564L154.127 185H150.903L147.081 178.864H144.559V185H141.751ZM156.821 185V166.02H159.629V176.446H162.151L165.947 170.7H169.119L164.569 177.564L169.197 185H165.973L162.151 178.864H159.629V185H156.821ZM171.735 185V182.452H176.753V173.248H172.385V170.7H179.483V182.452H184.085V185H171.735ZM177.845 168.23C177.238 168.23 176.753 168.074 176.389 167.762C176.025 167.433 175.843 166.999 175.843 166.462C175.843 165.907 176.025 165.474 176.389 165.162C176.753 164.833 177.238 164.668 177.845 164.668C178.451 164.668 178.937 164.833 179.301 165.162C179.665 165.474 179.847 165.907 179.847 166.462C179.847 166.999 179.665 167.433 179.301 167.762C178.937 168.074 178.451 168.23 177.845 168.23Z" fill="black"/>
<g clip-path="url(#clip1_42_24)">
<path d="M55.0001 30.048L40.0481 45L55.0001 59.952L69.9521 45L55.0001 30.048ZM44.5002 45.0419L54.9161 34.626L65.3321 45.042L54.9161 55.458L44.5002 45.0419Z" fill="#D92626"/>
<path fill-rule="evenodd" clip-rule="evenodd" d="M40.0479 45L54.9999 30.048C51.4482 30.048 48.1857 31.2864 45.6207 33.3549L43.3549 35.6208L33.9878 44.9878L43.2588 54.2589C41.2481 51.7125 40.0479 48.4964 40.0479 45Z" fill="#E05252"/>
<path fill-rule="evenodd" clip-rule="evenodd" d="M43.259 54.2589L45.7412 56.7411L54.9879 65.9878L64.1475 56.8283C61.619 58.7865 58.4457 59.952 55.0001 59.952L40.0481 45C40.0481 48.4964 41.2482 51.7125 43.259 54.2589Z" fill="#E87D7D"/>
<path fill-rule="evenodd" clip-rule="evenodd" d="M66.7411 35.7411C68.7519 38.2875 69.952 41.5036 69.952 45L55 59.952C58.4456 59.952 61.6189 58.7865 64.1474 56.8283L66.8283 54.1474L75.9878 44.9878L66.7411 35.7411Z" fill="#F0A8A8"/>
<path fill-rule="evenodd" clip-rule="evenodd" d="M54.9879 23.9878L45.6208 33.3549C48.1859 31.2864 51.4483 30.048 55.0001 30.048L69.9521 45C69.9521 41.5036 68.7519 38.2874 66.7412 35.7411L64.2589 33.2589L54.9879 23.9878Z" fill="#F7D4D4"/>
</g>
</g>
<defs>
<filter id="filter0_gf_42_24" x="-200" y="-464" width="1295" height="740" filterUnits="userSpaceOnUse" color-interpolation-filters="sRGB">
<feFlood flood-opacity="0" result="BackgroundImageFix"/>
<feBlend mode="normal" in="SourceGraphic" in2="BackgroundImageFix" result="shape"/>
<feTurbulence type="fractalNoise" baseFrequency="0.015625 0.015625" numOctaves="3" seed="9151" />
<feDisplacementMap in="shape" scale="200" xChannelSelector="R" yChannelSelector="G" result="displacedImage" width="100%" height="100%" />
<feMerge result="effect1_texture_42_24">
<feMergeNode in="displacedImage"/>
</feMerge>
<feGaussianBlur stdDeviation="32" result="effect2_foregroundBlur_42_24"/>
</filter>
<clipPath id="clip0_42_24">
<rect width="894" height="224" rx="24" fill="white"/>
</clipPath>
<clipPath id="clip1_42_24">
<rect width="42" height="42" fill="white" transform="translate(34 24)"/>
</clipPath>
</defs>
</svg>
